<svg width="35" height="34" viewBox="0 0 35 34" fill="none" xmlns="http://www.w3.org/2000/svg">
<g clip-path="url(#clip0_211_2332)">
<path d="M33.1457 27.0623L33.1457 27.0623C33.2769 26.9713 33.3888 26.8551 33.4747 26.7205L33.7681 26.9078L33.4747 26.7205C33.5607 26.5859 33.619 26.4356 33.6463 26.2782C33.6737 26.1208 33.6694 25.9596 33.6339 25.8039L33.9732 25.7265L33.6339 25.8039C33.5984 25.6482 33.5322 25.5011 33.4393 25.3712L33.4378 25.369C32.1307 23.5111 30.3498 22.0372 28.2802 21.1006L27.7755 20.8722L28.2003 20.5167C29.4601 19.4622 30.3643 18.0451 30.7898 16.4582C31.2153 14.8714 31.1414 13.192 30.5782 11.6487C30.015 10.1054 28.9899 8.77313 27.6423 7.83333C26.2948 6.89354 24.6904 6.39188 23.0475 6.39665L23.0459 6.39666C22.3148 6.39544 21.5871 6.49639 20.8839 6.69658L20.8777 6.69836L20.8777 6.6983C20.7215 6.73964 20.5751 6.81163 20.447 6.91008C20.3189 7.00854 20.2116 7.13149 20.1315 7.27179C20.0514 7.41209 20 7.56692 19.9803 7.72728C19.9606 7.88764 19.9729 8.05031 20.0167 8.20584C20.0605 8.36136 20.1347 8.50663 20.2352 8.63317L19.9626 8.84954L20.2352 8.63318C20.3356 8.75972 20.4602 8.86503 20.6018 8.94295L20.4339 9.24783L20.6018 8.94295C20.7433 9.02088 20.8989 9.06987 21.0595 9.08708C21.2202 9.10429 21.3827 9.08937 21.5375 9.04319L21.5415 9.042L21.5415 9.04202C22.0311 8.90233 22.538 8.83194 23.0472 8.8329M33.1457 27.0623L23.0465 9.18093M33.1457 27.0623L33.1416 27.0652C32.9384 27.2104 32.6948 27.2882 32.4451 27.2874C32.2497 27.2863 32.0575 27.2386 31.8842 27.1484C31.711 27.0583 31.5617 26.9283 31.4487 26.7691M33.1457 27.0623L31.1644 26.9699M23.0472 8.8329L23.0465 9.18093M23.0472 8.8329C23.0469 8.8329 23.0467 8.8329 23.0465 8.8329V9.18093M23.0472 8.8329C24.5238 8.83307 25.9399 9.41974 26.9841 10.4639C28.0284 11.5082 28.6151 12.9246 28.6151 14.4015C28.6151 15.8783 28.0284 17.2947 26.9841 18.339C25.9398 19.3833 24.5234 19.97 23.0465 19.97C22.7234 19.97 22.4136 20.0983 22.1852 20.3268C21.9567 20.5552 21.8284 20.8651 21.8284 21.1881C21.8284 21.5112 21.9567 21.821 22.1852 22.0495C22.4136 22.2779 22.7234 22.4063 23.0465 22.4063H23.0469C24.6943 22.4081 26.3172 22.8053 27.7793 23.5645C29.2412 24.3237 30.4996 25.4226 31.4487 26.7691M23.0465 9.18093C24.4311 9.18093 25.7589 9.73095 26.738 10.71C27.717 11.689 28.267 13.0169 28.267 14.4015C28.267 15.786 27.717 17.1139 26.738 18.0929C25.7589 19.072 24.4311 19.622 23.0465 19.622C22.6311 19.622 22.2328 19.787 21.9391 20.0807C21.6454 20.3744 21.4803 20.7728 21.4803 21.1881C21.4803 21.6035 21.6454 22.0019 21.9391 22.2956C22.2328 22.5893 22.6311 22.7543 23.0465 22.7543C24.6382 22.756 26.2063 23.1398 27.6189 23.8734C29.0315 24.6069 30.2474 25.6688 31.1644 26.9699M31.4487 26.7691C31.4486 26.7689 31.4484 26.7687 31.4483 26.7685L31.1644 26.9699M31.4487 26.7691C31.4488 26.7692 31.4488 26.7693 31.4489 26.7693L31.1644 26.9699M17.5628 20.5172L17.14 20.8729L17.6433 21.1006C19.713 22.0372 21.4939 23.5111 22.801 25.369L22.806 25.3761L22.8113 25.3829C22.9128 25.513 22.9869 25.6624 23.029 25.8219C23.071 25.9815 23.0802 26.148 23.056 26.3112C23.0318 26.4744 22.9747 26.6311 22.8881 26.7715C22.8015 26.912 22.6873 27.0335 22.5524 27.1285C22.4174 27.2235 22.2646 27.2901 22.1031 27.3242C21.9417 27.3584 21.775 27.3593 21.6131 27.3271C21.4513 27.2949 21.2977 27.2301 21.1616 27.1367C21.0256 27.0433 20.9099 26.9232 20.8217 26.7838L20.8172 26.7767L20.8124 26.7699C19.8653 25.4208 18.6072 24.3197 17.1447 23.5595C15.6821 22.7993 14.058 22.4025 12.4097 22.4025C10.7614 22.4025 9.13727 22.7993 7.6747 23.5595C6.21214 24.3197 4.9541 25.4208 4.00694 26.7699L4.00616 26.771C3.89482 26.9309 3.74637 27.0614 3.57352 27.1514C3.40068 27.2413 3.2086 27.288 3.01375 27.2874L3.01162 27.2874C2.76172 27.2883 2.51789 27.2105 2.31459 27.0652L2.31292 27.064C2.04941 26.878 1.87043 26.5951 1.81524 26.2773C1.76007 25.9596 1.83312 25.633 2.01837 25.369C3.32547 23.5111 5.10642 22.0372 7.17604 21.1006L7.67936 20.8729L7.2566 20.5172C6.00017 19.4602 5.09915 18.0425 4.6757 16.4562C4.25224 14.8698 4.32683 13.1916 4.88936 11.6491C5.45189 10.1066 6.47514 8.77439 7.82039 7.83306C9.16563 6.89174 10.7678 6.38685 12.4097 6.38685C14.0516 6.38685 15.6537 6.89174 16.999 7.83306C18.3442 8.77439 19.3675 10.1066 19.93 11.6491C20.4925 13.1916 20.5671 14.8698 20.1437 16.4562C19.7202 18.0425 18.8192 19.4602 17.5628 20.5172ZM7.7796 11.3077C7.16772 12.2235 6.84113 13.3001 6.84113 14.4015C6.84113 15.8783 7.42782 17.2947 8.47213 18.339C9.51643 19.3833 10.9328 19.97 12.4097 19.97C13.511 19.97 14.5877 19.6434 15.5034 19.0315C16.4192 18.4197 17.1329 17.55 17.5544 16.5324C17.9758 15.5149 18.0861 14.3953 17.8712 13.3151C17.6564 12.2349 17.126 11.2427 16.3473 10.4639C15.5685 9.68511 14.5763 9.15476 13.4961 8.93989C12.4159 8.72503 11.2962 8.83531 10.2787 9.25678C9.26118 9.67825 8.39149 10.392 7.7796 11.3077Z" fill="#4CAF4F" stroke="#4CAF4F" stroke-width="0.696069"/>
</g>
<defs>
<clipPath id="clip0_211_2332">
<rect width="33.4113" height="33.4113" fill="white" transform="translate(0.924561 0.306152)"/>
</clipPath>
</defs>
</svg>
