<svg width="34" height="34" viewBox="0 0 34 34" fill="none" xmlns="http://www.w3.org/2000/svg">
<mask id="path-1-inside-1_211_2338" fill="white">
<path d="M20.0112 16.7644C19.8436 16.7644 19.6879 16.7184 19.5497 16.6442V16.6462C19.5497 16.9099 19.4472 17.1575 19.2612 17.343C19.0753 17.529 18.8278 17.6315 18.5644 17.6315C18.3944 17.6315 18.2368 17.5843 18.097 17.5082C18.0829 17.7494 17.9865 17.9749 17.8145 18.1471C17.6285 18.3331 17.381 18.4355 17.1175 18.4355C16.5938 18.4355 16.1686 18.0239 16.138 17.508C15.9759 17.5956 15.7927 17.6415 15.6038 17.6293C15.0887 17.5956 14.6853 17.1505 14.6853 16.6159V12.1842L14.1807 13.0585C13.9885 13.3928 13.6287 13.6005 13.2413 13.6005C13.0526 13.6005 12.8661 13.5509 12.701 13.4563C12.4953 13.3371 12.3482 13.1457 12.287 12.9168C12.2256 12.6877 12.2574 12.4481 12.3763 12.2427C12.3764 12.2427 14.0273 9.38383 14.128 9.20822C14.14 9.18182 14.1741 9.10524 14.2032 9.03997C14.2309 8.97765 14.2547 8.91369 14.2774 8.84941C14.7753 7.44385 16.0081 6.57074 17.4948 6.57074C19.4255 6.57074 20.9962 8.27396 20.9962 10.3675L20.9964 15.779C20.9964 16.0424 20.894 16.2898 20.7082 16.476C20.5223 16.662 20.2748 16.7645 20.0111 16.7645L20.0112 16.7644ZM17.4948 7.09429C16.2173 7.09429 15.1991 7.81588 14.7709 9.0245C14.7435 9.10124 14.715 9.17799 14.6817 9.25277C14.5851 9.46941 14.5851 9.46941 14.5579 9.50056L14.5543 9.49745C14.4195 9.7518 14.019 10.4453 12.8296 12.5048C12.7807 12.5892 12.7677 12.6873 12.7927 12.7811C12.8179 12.8749 12.8784 12.9539 12.9622 13.0023C13.2223 13.1517 13.5785 13.0553 13.7268 12.797L14.7204 11.0767C14.7798 10.9742 14.8998 10.9238 15.0149 10.955C15.1294 10.9857 15.2089 11.0895 15.2089 11.2079V16.616C15.2089 16.8712 15.4015 17.0914 15.6381 17.107C15.7746 17.1142 15.9018 17.0685 15.9974 16.973C16.0844 16.8861 16.1322 16.7703 16.1322 16.6465V13.1095C16.1322 12.9649 16.2495 12.8476 16.3941 12.8476C16.5388 12.8476 16.656 12.9647 16.656 13.1095L16.6559 17.4505C16.6559 17.705 16.863 17.9121 17.1175 17.9121C17.2412 17.9121 17.3573 17.8642 17.4443 17.7773C17.5313 17.6902 17.5791 17.5741 17.5791 17.4505V13.1095C17.5791 12.9649 17.6962 12.8476 17.841 12.8476C17.9857 12.8476 18.1029 12.9647 18.1029 13.1095L18.1028 16.6058V16.6465C18.1028 16.9008 18.3099 17.108 18.5646 17.108C18.6881 17.108 18.8038 17.0599 18.8914 16.9727C18.9783 16.8859 19.0262 16.7701 19.0262 16.6463V13.1093C19.0262 12.9647 19.1433 12.8474 19.2881 12.8474C19.4328 12.8474 19.55 12.9645 19.55 13.1093L19.5497 15.7791C19.5497 16.0338 19.7568 16.2409 20.0111 16.2409C20.135 16.2409 20.2507 16.1929 20.3377 16.1061C20.4249 16.0189 20.4726 15.9028 20.4726 15.7791L20.4728 10.3676C20.4728 8.56292 19.1369 7.09434 17.4948 7.09434L17.4948 7.09429Z"/>
</mask>
<path d="M20.0112 16.7644C19.8436 16.7644 19.6879 16.7184 19.5497 16.6442V16.6462C19.5497 16.9099 19.4472 17.1575 19.2612 17.343C19.0753 17.529 18.8278 17.6315 18.5644 17.6315C18.3944 17.6315 18.2368 17.5843 18.097 17.5082C18.0829 17.7494 17.9865 17.9749 17.8145 18.1471C17.6285 18.3331 17.381 18.4355 17.1175 18.4355C16.5938 18.4355 16.1686 18.0239 16.138 17.508C15.9759 17.5956 15.7927 17.6415 15.6038 17.6293C15.0887 17.5956 14.6853 17.1505 14.6853 16.6159V12.1842L14.1807 13.0585C13.9885 13.3928 13.6287 13.6005 13.2413 13.6005C13.0526 13.6005 12.8661 13.5509 12.701 13.4563C12.4953 13.3371 12.3482 13.1457 12.287 12.9168C12.2256 12.6877 12.2574 12.4481 12.3763 12.2427C12.3764 12.2427 14.0273 9.38383 14.128 9.20822C14.14 9.18182 14.1741 9.10524 14.2032 9.03997C14.2309 8.97765 14.2547 8.91369 14.2774 8.84941C14.7753 7.44385 16.0081 6.57074 17.4948 6.57074C19.4255 6.57074 20.9962 8.27396 20.9962 10.3675L20.9964 15.779C20.9964 16.0424 20.894 16.2898 20.7082 16.476C20.5223 16.662 20.2748 16.7645 20.0111 16.7645L20.0112 16.7644ZM17.4948 7.09429C16.2173 7.09429 15.1991 7.81588 14.7709 9.0245C14.7435 9.10124 14.715 9.17799 14.6817 9.25277C14.5851 9.46941 14.5851 9.46941 14.5579 9.50056L14.5543 9.49745C14.4195 9.7518 14.019 10.4453 12.8296 12.5048C12.7807 12.5892 12.7677 12.6873 12.7927 12.7811C12.8179 12.8749 12.8784 12.9539 12.9622 13.0023C13.2223 13.1517 13.5785 13.0553 13.7268 12.797L14.7204 11.0767C14.7798 10.9742 14.8998 10.9238 15.0149 10.955C15.1294 10.9857 15.2089 11.0895 15.2089 11.2079V16.616C15.2089 16.8712 15.4015 17.0914 15.6381 17.107C15.7746 17.1142 15.9018 17.0685 15.9974 16.973C16.0844 16.8861 16.1322 16.7703 16.1322 16.6465V13.1095C16.1322 12.9649 16.2495 12.8476 16.3941 12.8476C16.5388 12.8476 16.656 12.9647 16.656 13.1095L16.6559 17.4505C16.6559 17.705 16.863 17.9121 17.1175 17.9121C17.2412 17.9121 17.3573 17.8642 17.4443 17.7773C17.5313 17.6902 17.5791 17.5741 17.5791 17.4505V13.1095C17.5791 12.9649 17.6962 12.8476 17.841 12.8476C17.9857 12.8476 18.1029 12.9647 18.1029 13.1095L18.1028 16.6058V16.6465C18.1028 16.9008 18.3099 17.108 18.5646 17.108C18.6881 17.108 18.8038 17.0599 18.8914 16.9727C18.9783 16.8859 19.0262 16.7701 19.0262 16.6463V13.1093C19.0262 12.9647 19.1433 12.8474 19.2881 12.8474C19.4328 12.8474 19.55 12.9645 19.55 13.1093L19.5497 15.7791C19.5497 16.0338 19.7568 16.2409 20.0111 16.2409C20.135 16.2409 20.2507 16.1929 20.3377 16.1061C20.4249 16.0189 20.4726 15.9028 20.4726 15.7791L20.4728 10.3676C20.4728 8.56292 19.1369 7.09434 17.4948 7.09434L17.4948 7.09429Z" fill="#4CAF4F"/>
<path d="M20.0112 16.7644V15.8363H23.2902L20.4976 17.5549L20.0112 16.7644ZM19.5497 16.6442H18.6216V15.0935L19.9883 15.8263L19.5497 16.6442ZM19.2612 17.343L18.605 16.6868L18.6058 16.6859L19.2612 17.343ZM18.097 17.5082L17.1705 17.454L17.2559 15.9933L18.5409 16.6931L18.097 17.5082ZM17.8145 18.1471L18.4711 18.803L18.4707 18.8033L17.8145 18.1471ZM16.138 17.508L15.6967 16.6915L16.978 15.999L17.0644 17.453L16.138 17.508ZM15.6038 17.6293L15.5443 18.5555L15.5431 18.5555L15.6038 17.6293ZM14.6853 12.1842L13.8815 11.7203L15.6134 8.71985V12.1842H14.6853ZM14.1807 13.0585L13.376 12.596L13.3769 12.5945L14.1807 13.0585ZM12.701 13.4563L12.2395 14.2616L12.2355 14.2592L12.701 13.4563ZM12.287 12.9168L13.1834 12.6761L13.1837 12.6772L12.287 12.9168ZM12.3763 12.2427L11.5731 11.7777L11.8412 11.3146H12.3763V12.2427ZM14.128 9.20822L14.9733 9.59148L14.9551 9.63167L14.9331 9.66995L14.128 9.20822ZM14.2032 9.03997L13.3551 8.66284L13.3551 8.66283L14.2032 9.03997ZM14.2774 8.84941L15.1523 9.15928L15.1522 9.15953L14.2774 8.84941ZM20.9962 10.3675L20.0681 10.3675V10.3675H20.9962ZM20.9964 15.779L21.9245 15.779V15.779H20.9964ZM20.7082 16.476L21.3651 17.1316L21.3645 17.1323L20.7082 16.476ZM20.0111 16.7645V17.6926H16.7321L19.5247 15.974L20.0111 16.7645ZM17.4948 7.09429V6.16619H18.7252L18.3872 7.34925L17.4948 7.09429ZM14.7709 9.0245L15.6457 9.33442L15.645 9.33641L14.7709 9.0245ZM14.6817 9.25277L15.5296 9.63023L15.5294 9.63072L14.6817 9.25277ZM14.5579 9.50056L15.2568 10.1112L14.6496 10.8061L13.9513 10.203L14.5579 9.50056ZM14.5543 9.49745L13.7342 9.06285L14.2796 8.03389L15.1609 8.79505L14.5543 9.49745ZM12.8296 12.5048L13.6333 12.9689L13.6329 12.9696L12.8296 12.5048ZM12.7927 12.7811L11.8965 13.0224L11.8957 13.0195L12.7927 12.7811ZM12.9622 13.0023L12.5 13.8071L12.4982 13.8061L12.9622 13.0023ZM13.7268 12.797L12.9218 12.335L12.9231 12.3328L13.7268 12.797ZM14.7204 11.0767L13.9167 10.6125L13.9173 10.6115L14.7204 11.0767ZM15.0149 10.955L14.7748 11.8515L14.7725 11.8509L15.0149 10.955ZM15.6381 17.107L15.5891 18.0339L15.5772 18.0331L15.6381 17.107ZM15.9974 16.973L16.6537 17.6293L16.6531 17.6298L15.9974 16.973ZM16.656 13.1095H17.5841V13.1095L16.656 13.1095ZM16.6559 17.4505H15.7278V17.4504L16.6559 17.4505ZM17.4443 17.7773L18.1012 18.4329L18.1 18.4342L17.4443 17.7773ZM18.1029 13.1095H19.031V13.1096L18.1029 13.1095ZM18.1028 16.6058H17.1747V16.6058L18.1028 16.6058ZM18.8914 16.9727L19.5471 17.6295L19.5464 17.6301L18.8914 16.9727ZM19.55 13.1093H20.4781V13.1094L19.55 13.1093ZM19.5497 15.7791H18.6216V15.779L19.5497 15.7791ZM20.3377 16.1061L20.9939 16.7624L20.9933 16.763L20.3377 16.1061ZM20.4726 15.7791H19.5445V15.7791L20.4726 15.7791ZM20.4728 10.3676H21.4009V10.3677L20.4728 10.3676ZM17.4948 7.09434V8.02243H16.2644L16.6024 6.83937L17.4948 7.09434ZM20.0112 17.6925C19.6694 17.6925 19.3643 17.5979 19.1111 17.4622L19.9883 15.8263C20.0003 15.8327 20.0079 15.8352 20.0109 15.836C20.0135 15.8367 20.0131 15.8363 20.0112 15.8363V17.6925ZM20.4778 16.6442V16.6462H18.6216V16.6442H20.4778ZM20.4778 16.6462C20.4778 17.1553 20.278 17.6397 19.9166 18.0001L18.6058 16.6859C18.6125 16.6793 18.6158 16.6736 18.6177 16.669C18.6196 16.6643 18.6216 16.6572 18.6216 16.6462H20.4778ZM19.9175 17.9993C19.5573 18.3594 19.0737 18.5596 18.5644 18.5596V16.7034C18.5751 16.7034 18.5821 16.7015 18.5868 16.6995C18.5916 16.6975 18.5977 16.694 18.605 16.6868L19.9175 17.9993ZM18.5644 18.5596C18.2182 18.5596 17.9093 18.4627 17.6532 18.3232L18.5409 16.6931C18.553 16.6997 18.5606 16.7022 18.5637 16.703C18.5663 16.7037 18.5661 16.7034 18.5644 16.7034V18.5596ZM19.0235 17.5623C18.9968 18.0191 18.8115 18.4622 18.4711 18.803L17.1579 17.4912C17.1613 17.4877 17.1633 17.4847 17.165 17.4808C17.1668 17.4767 17.1697 17.4682 17.1705 17.454L19.0235 17.5623ZM18.4707 18.8033C18.1105 19.1636 17.6269 19.3636 17.1175 19.3636V17.5075C17.1283 17.5075 17.1354 17.5055 17.1401 17.5035C17.1448 17.5016 17.151 17.4981 17.1582 17.4908L18.4707 18.8033ZM17.1175 19.3636C16.0929 19.3636 15.2707 18.5595 15.2115 17.563L17.0644 17.453C17.0654 17.4688 17.0718 17.4826 17.0832 17.4935C17.0888 17.4988 17.0945 17.5022 17.0994 17.5042C17.1037 17.506 17.1092 17.5075 17.1175 17.5075V19.3636ZM16.5792 18.3245C16.2795 18.4865 15.924 18.5799 15.5443 18.5555L15.6633 16.7032C15.6633 16.7032 15.6653 16.7034 15.6702 16.7022C15.6754 16.701 15.6845 16.6981 15.6967 16.6915L16.5792 18.3245ZM15.5431 18.5555C14.5126 18.4879 13.7572 17.6115 13.7572 16.6159H15.6134C15.6134 16.6472 15.6248 16.6714 15.6391 16.6872C15.653 16.7025 15.6624 16.7031 15.6646 16.7032L15.5431 18.5555ZM13.7572 16.6159V12.1842H15.6134V16.6159H13.7572ZM15.4891 12.6482L14.9845 13.5224L13.3769 12.5945L13.8815 11.7203L15.4891 12.6482ZM14.9853 13.521C14.6267 14.1449 13.9591 14.5285 13.2413 14.5285V12.6724C13.2982 12.6724 13.3502 12.6408 13.376 12.596L14.9853 13.521ZM13.2413 14.5285C12.8903 14.5285 12.5449 14.4365 12.2395 14.2616L13.1624 12.651C13.1873 12.6653 13.2148 12.6724 13.2413 12.6724V14.5285ZM12.2355 14.2592C11.8188 14.0177 11.5155 13.6245 11.3904 13.1563L13.1837 12.6772C13.1828 12.674 13.1805 12.6684 13.1761 12.6626C13.1716 12.6568 13.1675 12.654 13.1665 12.6534L12.2355 14.2592ZM11.3907 13.1574C11.2651 12.6895 11.3308 12.196 11.5731 11.7777L13.1794 12.7078C13.1807 12.7055 13.1831 12.7002 13.1841 12.6927C13.1851 12.6852 13.1842 12.6792 13.1834 12.6761L11.3907 13.1574ZM12.3763 11.3146C11.921 11.434 11.5802 11.7656 11.5777 11.7698C11.5768 11.7713 11.5756 11.7734 11.5752 11.7741C11.5749 11.7745 11.5745 11.7752 11.5744 11.7754C11.5743 11.7755 11.5742 11.7758 11.5741 11.7759C11.574 11.7761 11.574 11.7761 11.5744 11.7755C11.575 11.7744 11.5761 11.7725 11.5776 11.7699C11.5807 11.7646 11.5852 11.7567 11.5913 11.7462C11.6034 11.7253 11.6211 11.6946 11.6438 11.6553C11.6891 11.5768 11.754 11.4645 11.8322 11.3291C11.9885 11.0584 12.198 10.6956 12.4107 10.3273C12.8367 9.58941 13.2735 8.83275 13.323 8.74649L14.9331 9.66995C14.8819 9.7593 14.4428 10.5199 14.0182 11.2554C13.8055 11.6238 13.596 11.9866 13.4396 12.2574C13.3614 12.3928 13.2965 12.5052 13.2511 12.5838C13.2284 12.623 13.2106 12.6539 13.1984 12.6749C13.1923 12.6855 13.1876 12.6936 13.1844 12.6992C13.1828 12.7019 13.1815 12.7042 13.1805 12.7059C13.1801 12.7066 13.1795 12.7076 13.179 12.7085C13.1788 12.7088 13.1782 12.7099 13.1775 12.7111C13.177 12.7119 13.1757 12.7141 13.1749 12.7156C13.1723 12.7199 12.8315 13.0515 12.3763 13.1708V11.3146ZM13.2828 8.82496C13.293 8.80243 13.3254 8.72979 13.3551 8.66284L15.0512 9.41709C15.0229 9.48069 14.987 9.56121 14.9733 9.59148L13.2828 8.82496ZM13.3551 8.66283C13.368 8.63382 13.3823 8.59676 13.4027 8.53928L15.1522 9.15953C15.127 9.23062 15.0937 9.32147 15.0512 9.4171L13.3551 8.66283ZM13.4026 8.53953C14.0312 6.76491 15.6134 5.64265 17.4948 5.64265V7.49884C16.4028 7.49884 15.5194 8.12278 15.1523 9.15928L13.4026 8.53953ZM17.4948 5.64265C20.0074 5.64265 21.9243 7.83359 21.9243 10.3675H20.0681C20.0681 8.71432 18.8436 7.49884 17.4948 7.49884V5.64265ZM21.9243 10.3675L21.9245 15.779L20.0683 15.779L20.0681 10.3675L21.9243 10.3675ZM21.9245 15.779C21.9245 16.288 21.7248 16.7713 21.3651 17.1316L20.0514 15.8203C20.0587 15.813 20.0623 15.8067 20.0643 15.8019C20.0663 15.797 20.0683 15.7898 20.0683 15.779H21.9245ZM21.3645 17.1323C21.0042 17.4925 20.5206 17.6926 20.0111 17.6926V15.8364C20.022 15.8364 20.0292 15.8344 20.0339 15.8324C20.0386 15.8305 20.0447 15.827 20.052 15.8197L21.3645 17.1323ZM19.5247 15.974L19.5248 15.974L20.4976 17.5549L20.4975 17.5549L19.5247 15.974ZM17.4948 8.02238C16.6124 8.02238 15.9433 8.49442 15.6457 9.33442L13.8961 8.71458C14.4549 7.13733 15.8222 6.16619 17.4948 6.16619V8.02238ZM15.645 9.33641C15.6157 9.41851 15.5777 9.5222 15.5296 9.63023L13.8338 8.87532C13.8523 8.83379 13.8713 8.78398 13.8968 8.71258L15.645 9.33641ZM15.5294 9.63072C15.4869 9.72604 15.4512 9.80654 15.424 9.86107C15.4071 9.89491 15.3797 9.94707 15.34 10.0048C15.2998 10.0634 15.26 10.1075 15.2568 10.1112L13.859 8.88991C13.8612 8.88742 13.8605 8.88823 13.8594 8.8895C13.8579 8.89115 13.8543 8.89536 13.8496 8.90113C13.8447 8.9071 13.8385 8.91482 13.8316 8.924C13.8245 8.93326 13.8174 8.94311 13.8103 8.9535C13.7957 8.97466 13.7845 8.99319 13.7766 9.0072C13.7691 9.02029 13.7646 9.02934 13.7636 9.03138C13.7625 9.03349 13.7632 9.03225 13.7663 9.0255C13.7694 9.01895 13.7737 9.00953 13.7799 8.99582C13.7861 8.98222 13.7934 8.9658 13.8025 8.94551C13.8116 8.92525 13.8219 8.90204 13.8341 8.87483L15.5294 9.63072ZM13.9513 10.203L13.9477 10.1999L15.1609 8.79505L15.1645 8.79816L13.9513 10.203ZM15.3743 9.93205C15.2291 10.2061 14.8144 10.9239 13.6333 12.9689L12.0259 12.0406C13.2236 9.96678 13.6099 9.29747 13.7342 9.06285L15.3743 9.93205ZM13.6329 12.9696C13.7071 12.8413 13.7278 12.6864 13.6896 12.5427L11.8957 13.0195C11.8077 12.6881 11.8543 12.3372 12.0263 12.0399L13.6329 12.9696ZM13.6889 12.5398C13.6507 12.398 13.5568 12.2739 13.4262 12.1985L12.4982 13.8061C12.2001 13.634 11.9852 13.3518 11.8965 13.0224L13.6889 12.5398ZM13.4245 12.1975C13.3189 12.1368 13.2161 12.1372 13.1452 12.1563C13.0745 12.1754 12.9839 12.2269 12.9218 12.335L14.5317 13.259C14.1272 13.9637 13.2028 14.2108 12.5 13.8071L13.4245 12.1975ZM12.9231 12.3328L13.9167 10.6125L15.5241 11.5409L14.5304 13.2612L12.9231 12.3328ZM13.9173 10.6115C14.1854 10.1487 14.7325 9.91708 15.2574 10.0591L14.7725 11.8509C15.0671 11.9306 15.3742 11.7997 15.5235 11.5419L13.9173 10.6115ZM15.2551 10.0585C15.7758 10.198 16.137 10.6699 16.137 11.2079H14.2809C14.2809 11.5091 14.483 11.7733 14.7748 11.8515L15.2551 10.0585ZM16.137 11.2079V16.616H14.2809V11.2079H16.137ZM16.137 16.616C16.137 16.5103 16.0979 16.4141 16.0335 16.3405C15.9693 16.2671 15.856 16.1912 15.6991 16.1809L15.5772 18.0331C14.7959 17.9817 14.2809 17.3011 14.2809 16.616H16.137ZM15.6871 16.1802C15.5775 16.1744 15.4435 16.2146 15.3418 16.3162L16.6531 17.6298C16.3601 17.9223 15.9716 18.054 15.5891 18.0338L15.6871 16.1802ZM15.3412 16.3167C15.2531 16.4048 15.2041 16.5255 15.2041 16.6465H17.0603C17.0603 17.0151 16.9156 17.3674 16.6537 17.6293L15.3412 16.3167ZM15.2041 16.6465V13.1095H17.0603V16.6465H15.2041ZM15.2041 13.1095C15.2041 12.4523 15.7369 11.9195 16.3941 11.9195V13.7757C16.7621 13.7757 17.0603 13.4774 17.0603 13.1095H15.2041ZM16.3941 11.9195C17.051 11.9195 17.5841 12.4518 17.5841 13.1095H15.7279C15.7279 13.4777 16.0266 13.7757 16.3941 13.7757V11.9195ZM17.5841 13.1095L17.584 17.4505L15.7278 17.4504L15.7279 13.1095L17.5841 13.1095ZM17.584 17.4505C17.584 17.1924 17.3756 16.984 17.1175 16.984V18.8402C16.3504 18.8402 15.7278 18.2176 15.7278 17.4505H17.584ZM17.1175 16.984C16.9967 16.984 16.8766 17.0327 16.7887 17.1204L18.1 18.4342C17.8379 18.6957 17.4856 18.8402 17.1175 18.8402V16.984ZM16.7875 17.1217C16.6997 17.2096 16.6511 17.3297 16.6511 17.4505H18.5072C18.5072 17.8185 18.3628 18.1709 18.1012 18.4329L16.7875 17.1217ZM16.6511 17.4505V13.1095H18.5072V17.4505H16.6511ZM16.6511 13.1095C16.6511 12.4527 17.1833 11.9195 17.841 11.9195V13.7757C18.2092 13.7757 18.5072 13.4771 18.5072 13.1095H16.6511ZM17.841 11.9195C18.4979 11.9195 19.031 12.4518 19.031 13.1095H17.1748C17.1748 13.4777 17.4735 13.7757 17.841 13.7757V11.9195ZM19.031 13.1096L19.0309 16.6059L17.1747 16.6058L17.1748 13.1095L19.031 13.1096ZM19.0309 16.6058V16.6465H17.1747V16.6058H19.0309ZM19.0309 16.6465C19.0309 16.3878 18.822 16.1799 18.5646 16.1799V18.036C17.7978 18.036 17.1747 17.4139 17.1747 16.6465H19.0309ZM18.5646 16.1799C18.4413 16.1799 18.3219 16.23 18.2364 16.3152L19.5464 17.6301C19.2858 17.8898 18.9349 18.036 18.5646 18.036V16.1799ZM18.2358 16.3158C18.147 16.4044 18.0981 16.5255 18.0981 16.6463H19.9543C19.9543 17.0148 19.8097 17.3674 19.5471 17.6295L18.2358 16.3158ZM18.0981 16.6463V13.1093H19.9543V16.6463H18.0981ZM18.0981 13.1093C18.0981 12.4525 18.6304 11.9193 19.2881 11.9193V13.7755C19.6562 13.7755 19.9543 13.4769 19.9543 13.1093H18.0981ZM19.2881 11.9193C19.9449 11.9193 20.4781 12.4516 20.4781 13.1093H18.6219C18.6219 13.4775 18.9206 13.7755 19.2881 13.7755V11.9193ZM20.4781 13.1094L20.4778 15.7792L18.6216 15.779L18.6219 13.1092L20.4781 13.1094ZM20.4778 15.7791C20.4778 15.5217 20.2698 15.3128 20.0111 15.3128V17.169C19.2438 17.169 18.6216 16.5459 18.6216 15.7791H20.4778ZM20.0111 15.3128C19.8894 15.3128 19.7693 15.3621 19.682 15.4493L20.9933 16.763C20.7322 17.0236 20.3805 17.169 20.0111 17.169V15.3128ZM19.6814 15.4499C19.593 15.5383 19.5445 15.6589 19.5445 15.7791H21.4007C21.4007 16.1467 21.2568 16.4995 20.9939 16.7624L19.6814 15.4499ZM19.5445 15.7791L19.5447 10.3676L21.4009 10.3677L21.4007 15.7792L19.5445 15.7791ZM19.5447 10.3676C19.5447 8.99091 18.5437 8.02243 17.4948 8.02243V6.16625C19.7302 6.16625 21.4009 8.13493 21.4009 10.3676H19.5447ZM16.6024 6.83937L16.6025 6.83932L18.3872 7.34925L18.3872 7.34931L16.6024 6.83937Z" fill="#4CAF4F" mask="url(#path-1-inside-1_211_2338)"/>
<path d="M11.5286 21.7394C11.4043 21.8141 11.2436 21.7738 11.1693 21.6497C11.0948 21.5257 11.1352 21.3648 11.259 21.2904M11.5286 21.7394L13.7912 18.6948C14.0098 18.5635 14.2981 18.6153 14.4329 18.8103M11.5286 21.7394L14.5615 19.9199H14.5616L14.562 19.9197M11.5286 21.7394L15.726 20.298C15.8319 20.2344 15.9067 20.1337 15.9365 20.0142M11.259 21.2904L14.292 19.4708C14.398 19.4072 14.4729 19.3064 14.5028 19.1871M11.259 21.2904L11.2897 21.3415L11.3937 21.5149L11.3939 21.5152L11.4408 21.5934L11.4977 21.6883L11.4978 21.6882L11.4979 21.6882L11.4981 21.688M11.259 21.2904L11.2897 21.3415M14.5028 19.1871C14.5356 19.0563 14.5106 18.9225 14.4329 18.8103M14.5028 19.1871L14.5776 19.2059L14.5705 19.052C14.5655 18.9461 14.5346 18.8521 14.4821 18.7766L14.482 18.7763L14.4329 18.8103M14.5028 19.1871L14.5776 19.2059L14.585 19.3647L14.4332 19.4558H14.4329L14.3227 19.5219L14.3227 19.5219L14.3227 19.522L11.2899 21.3414M14.4329 18.8103L14.482 18.7763L12.2426 22.9288C12.3379 22.8715 12.3694 22.7476 12.3116 22.6515C12.2544 22.5561 12.1301 22.5248 12.0344 22.5822L15.0673 20.7628C15.137 20.7209 15.21 20.6893 15.2846 20.6676L15.755 20.3464L15.755 20.3464L15.7809 20.3287C15.8913 20.2533 15.9643 20.1489 15.9943 20.0287L15.9943 20.0286L15.9365 20.0142M11.2899 21.3414C11.3853 21.2844 11.5095 21.3153 11.5671 21.4108C11.5672 21.411 11.5674 21.4112 11.5675 21.4114C11.6247 21.5074 11.5931 21.6309 11.4981 21.688M11.2899 21.3414C11.2898 21.3415 11.2898 21.3415 11.2897 21.3415M11.2899 21.3414L11.2897 21.3415M11.4981 21.688L14.5307 19.8688L14.5308 19.8688L14.531 19.8687C14.531 19.8686 14.5311 19.8685 14.5312 19.8685L14.5615 19.9189L14.5616 19.9191L14.562 19.9197M11.4981 21.688L11.3941 21.5151L11.3939 21.5148L11.3587 21.4563L11.2897 21.3415M14.562 19.9197V19.8492C14.6205 19.8109 14.674 19.7665 14.7219 19.7169L15.2211 19.4563L15.2211 19.4563L15.2487 19.4419C15.329 19.4 15.4099 19.3804 15.4868 19.3804C15.5284 19.3804 15.5712 19.3855 15.6149 19.3964C15.6149 19.3964 15.6149 19.3964 15.615 19.3964C15.6151 19.3964 15.6153 19.3965 15.6154 19.3965L15.7131 19.0041M14.562 19.9197L15.251 19.5063C15.3567 19.443 15.4803 19.4244 15.6005 19.4543C15.7201 19.4841 15.8209 19.5589 15.8844 19.6647C15.9479 19.7706 15.9664 19.8948 15.9365 20.0142M15.7131 19.0041C15.7131 19.0041 15.7131 19.0041 15.7131 19.0041M15.7131 19.0041C15.9522 19.0639 16.1556 19.2148 16.2822 19.4258L16.3333 19.3952M15.7131 19.0041L15.7275 18.9462M15.7131 19.0041L15.615 19.3964C15.7508 19.4303 15.8633 19.5137 15.9354 19.6338C15.9354 19.6339 15.9354 19.634 15.9355 19.634C15.9355 19.634 15.9355 19.6341 15.9355 19.6341C16.0078 19.7548 16.0282 19.8932 15.9943 20.0284L15.9943 20.0286L15.9365 20.0142M15.7131 19.0041C15.713 19.0041 15.713 19.0041 15.7129 19.0041L15.7123 19.0039C15.6406 18.9861 15.568 18.977 15.4957 18.9764M15.7131 19.0041L15.7275 18.9462M15.2754 21.1094L15.5371 20.9525L15.8068 21.1116C15.8876 21.1593 15.9487 21.2189 15.9899 21.2879L15.9901 21.2882C15.9901 21.2882 15.9902 21.2883 15.9902 21.2884L15.9393 21.319M15.2754 21.1094L16.0493 21.683C16.083 21.5473 16.0624 21.409 15.9902 21.2884L15.9393 21.319M15.2754 21.1094L15.3061 21.1606M15.2754 21.1094L15.2754 21.1094L15.3061 21.1606M15.9393 21.319C15.8083 21.1007 15.5241 21.0297 15.3061 21.1606M15.9393 21.319C16.0029 21.4248 16.0215 21.5491 15.9916 21.6686L15.3061 21.1606M16.3815 21.0387C16.3837 21.0423 16.3859 21.0459 16.3881 21.0496L16.3815 21.0387ZM16.3815 21.0387C16.3658 21.0509 16.3499 21.0629 16.3337 21.0745C16.3348 21.0763 16.3359 21.078 16.337 21.0798L16.3815 21.0387ZM16.3093 20.331C16.3427 20.2669 16.3688 20.1984 16.3867 20.1267L16.3093 20.331ZM16.3093 20.331C16.3259 20.3413 16.3424 20.352 16.3588 20.3631C16.396 20.2938 16.4249 20.2195 16.4445 20.141C16.5083 19.886 16.4688 19.6212 16.3333 19.3952M16.3093 20.331L16.3868 20.1266C16.4465 19.8875 16.4088 19.6372 16.2825 19.4262L16.2823 19.4259C16.2823 19.4259 16.2823 19.4259 16.2822 19.4258L16.3333 19.3952M16.3333 19.3952C16.198 19.1696 15.9829 19.01 15.7275 18.9462M15.7275 18.9462L15.4905 18.9164M15.4905 18.9164C15.4926 18.9364 15.4943 18.9564 15.4957 18.9764M15.4905 18.9164C15.4892 18.9164 15.488 18.9163 15.4868 18.9163C15.3299 18.9163 15.1757 18.9565 15.034 19.0305M15.4905 18.9164L15.034 19.0305M15.4957 18.9764C15.4964 18.9872 15.497 18.9981 15.4976 19.009L15.4868 19.0095L15.1987 19.0228M15.4957 18.9764C15.4927 18.9763 15.4898 18.9763 15.4868 18.9763C15.3889 18.9764 15.2917 18.9921 15.1987 19.0228M15.1987 19.0228L15.034 19.0305M15.1987 19.0228C15.1514 19.0385 15.1052 19.058 15.0605 19.0813C15.0443 19.0898 15.0283 19.0988 15.0125 19.1082L15.0123 19.1083L14.9793 19.1281M15.034 19.0305L14.7695 19.254L14.7696 19.2539L14.9529 19.2998C14.9529 19.2999 14.9529 19.2999 14.9529 19.3C14.9672 19.2429 14.9759 19.1854 14.9793 19.1281M15.034 19.0305L14.9632 18.8948M15.034 19.0305C15.0267 18.8724 14.985 18.7167 14.905 18.5777C14.8868 18.5858 14.8688 18.5943 14.8509 18.6031M14.9793 19.1281C14.9812 19.0963 14.9814 19.0646 14.98 19.033C14.9779 18.9864 14.9723 18.9403 14.9632 18.8948M14.9793 19.1281L14.9632 18.8948M14.9632 18.8948L14.8193 18.6191C14.8298 18.6136 14.8403 18.6083 14.8509 18.6031M14.9632 18.8948L14.8144 18.5461C14.8273 18.5647 14.8395 18.5837 14.8509 18.6031M14.9632 18.8948C14.9428 18.7927 14.905 18.6943 14.8509 18.6031M16.0426 20.7119L16.1219 20.5774C16.0875 20.6096 16.0506 20.6392 16.0113 20.6661C15.9962 20.6764 15.9807 20.6863 15.9649 20.6958L15.9647 20.696L15.9311 20.7161L16.0426 20.7119ZM8.63176 18.5523L8.579 18.5245C8.5693 18.542 8.54516 18.5855 8.50949 18.6497C8.50066 18.6657 8.49112 18.6828 8.48092 18.7012C8.49911 18.7103 8.51745 18.7182 8.53582 18.7252C8.56719 18.6686 8.59917 18.611 8.63176 18.5523ZM12.7787 23.8229C12.7787 23.823 12.7786 23.823 12.7786 23.823L12.7787 23.8229Z" fill="#4CAF4F" stroke="#4CAF4F" stroke-width="0.928093"/>
<path d="M24.4806 19.3884L24.4805 19.3885L24.4806 19.3884ZM24.4806 19.3884C24.3833 19.2143 24.3873 18.9998 24.4902 18.8281L24.4806 19.3884ZM18.7389 18.9762C18.6664 18.9768 18.5935 18.986 18.5216 19.004L18.7389 18.9762ZM18.7389 18.9762C18.7403 18.9562 18.7421 18.9363 18.7442 18.9163L18.7389 18.9762ZM24.0629 19.7139L24.0235 19.6429L24.0629 19.7139ZM22.9447 21.3414C22.9446 21.3413 22.9445 21.3413 22.9445 21.3412L22.9446 21.3413L22.9447 21.3414ZM21.4559 23.8234C21.4558 23.8233 21.4557 23.8232 21.4556 23.8232L21.4559 23.8234ZM21.4554 23.8231L21.4555 23.8231L21.4554 23.8231Z" fill="#4CAF4F" stroke="#4CAF4F" stroke-width="0.928093"/>
</svg>
